<?xml version="1.0" standalone="no"?><!DOCTYPE svg PUBLIC "-//W3C//DTD SVG 1.1//EN" "http://www.w3.org/Graphics/SVG/1.1/DTD/svg11.dtd"><svg t="1656491789677" class="icon" viewBox="0 0 1024 1024" version="1.1" xmlns="http://www.w3.org/2000/svg" p-id="1911" width="48" height="48" xmlns:xlink="http://www.w3.org/1999/xlink"><defs><style type="text/css"></style></defs><path d="M965.73 930.6H58.18C26.06 930.57 0.04 904.54 0 872.42V151.03c0.04-32.12 26.06-58.14 58.18-58.18h907.55c32.12 0.04 58.14 26.06 58.18 58.18v721.39c-0.04 32.12-26.06 58.15-58.18 58.18zM58.18 139.4c-6.43 0-11.64 5.21-11.64 11.64v721.39c0 6.42 5.21 11.63 11.64 11.63h907.55c6.43 0 11.64-5.21 11.64-11.63v-721.4c0-6.43-5.21-11.64-11.64-11.64H58.18z m0 0" p-id="1912"></path><path d="M288.11 512.34c0 5.87-1.12 10.04-3.36 12.52-2.24 2.48-4.79 3.72-7.66 3.72H175.54c0 11.28 0.86 21.43 2.58 30.45 1.72 9.02 4.59 16.77 8.61 23.24 4.02 6.47 9.24 11.43 15.67 14.89 6.43 3.46 14.29 5.19 23.59 5.19 7.35 0 13.89-0.79 19.63-2.37 5.74-1.58 10.7-3.35 14.89-5.3 4.19-1.95 7.63-3.72 10.33-5.3 2.7-1.58 4.74-2.37 6.11-2.37 0.8 0 1.52 0.26 2.15 0.79 0.63 0.53 1.12 1.32 1.46 2.37 0.34 1.05 0.6 2.52 0.77 4.4 0.17 1.88 0.26 4.17 0.26 6.88 0 1.96-0.06 3.65-0.17 5.08a59.73 59.73 0 0 1-0.43 3.84c-0.17 1.13-0.46 2.14-0.86 3.04-0.4 0.9-0.92 1.77-1.54 2.59-0.63 0.83-2.48 2.18-5.57 4.06-3.08 1.88-7.08 3.72-11.99 5.53-4.91 1.8-10.6 3.42-17.05 4.85-6.45 1.43-13.34 2.14-20.65 2.14-12.68 0-23.79-2.33-33.32-6.99-9.54-4.66-17.56-11.58-24.07-20.75-6.51-9.17-11.42-20.68-14.73-34.51-3.31-13.83-4.97-29.93-4.97-48.28 0-17.44 1.71-33.12 5.14-47.03 3.43-13.91 8.37-25.72 14.82-35.42 6.45-9.7 14.25-17.14 23.39-22.33 9.14-5.19 19.36-7.78 30.67-7.78 12.11 0 22.42 2.56 30.93 7.67 8.51 5.11 15.51 11.99 20.99 20.64 5.48 8.65 9.51 18.8 12.08 30.45 2.57 11.66 3.85 24.1 3.85 37.33v6.76z m-28.45-11.05c0.34-19.55-2.96-34.89-9.91-46.02-6.95-11.13-17.27-16.69-30.94-16.69-7.01 0-13.16 1.73-18.45 5.19-5.29 3.46-9.71 8.05-13.28 13.76-3.56 5.72-6.32 12.37-8.27 19.96-1.95 7.6-3.04 15.53-3.27 23.8h84.12zM453.44 546.4c0 13.69-1.91 25.87-5.74 36.54-3.83 10.68-9.14 19.74-15.93 27.18-6.8 7.45-14.79 13.05-23.99 16.81-9.2 3.76-19.1 5.64-29.73 5.64-7.43 0-14.31-0.83-20.65-2.48-6.34-1.66-11.99-3.68-16.96-6.09-4.97-2.4-9.14-4.89-12.51-7.44-3.37-2.56-5.71-4.74-7.02-6.54-1.31-1.8-2.29-4.1-2.91-6.88-0.63-2.78-0.94-6.5-0.94-11.17 0-3.31 0.11-6.05 0.34-8.23 0.23-2.18 0.57-3.95 1.03-5.3 0.46-1.35 1.03-2.29 1.71-2.82 0.69-0.53 1.48-0.79 2.4-0.79 1.6 0 3.85 1.28 6.77 3.83 2.91 2.56 6.65 5.34 11.22 8.35s10.08 5.83 16.53 8.46c6.45 2.63 13.9 3.95 22.36 3.95 6.4 0 12.25-1.13 17.56-3.38 5.31-2.26 9.88-5.45 13.71-9.59 3.83-4.13 6.77-9.21 8.82-15.23 2.06-6.01 3.08-12.86 3.08-20.53 0-8.27-1.43-15.34-4.28-21.21-2.86-5.87-6.63-11.01-11.31-15.45-4.69-4.43-10.02-8.49-16.02-12.18-6-3.68-12.14-7.44-18.42-11.28a187 187 0 0 1-18.33-12.75c-5.94-4.66-11.25-10.15-15.93-16.47-4.68-6.32-8.48-13.72-11.39-22.22-2.91-8.49-4.37-18.69-4.37-30.57 0-12.18 1.68-23.04 5.05-32.6 3.37-9.55 8.05-17.56 14.05-24.02 6-6.46 13.13-11.39 21.42-14.78 8.28-3.38 17.22-5.08 26.81-5.08 4.91 0 9.85 0.56 14.82 1.69s9.65 2.63 14.05 4.51 8.31 3.99 11.74 6.32c3.43 2.33 5.68 4.21 6.77 5.64 1.08 1.43 1.8 2.56 2.14 3.38 0.34 0.83 0.63 1.88 0.86 3.16 0.23 1.28 0.4 2.82 0.51 4.62 0.11 1.8 0.17 4.14 0.17 6.99 0 2.71-0.09 5.11-0.26 7.22-0.17 2.11-0.43 3.87-0.77 5.3-0.34 1.43-0.83 2.48-1.46 3.16-0.63 0.68-1.34 1.02-2.14 1.02-1.26 0-3.23-1.05-5.91-3.16-2.69-2.1-5.97-4.47-9.85-7.11-3.88-2.63-8.48-5.04-13.79-7.22-5.31-2.18-11.28-3.27-17.9-3.27-6.17 0-11.54 1.09-16.11 3.27-4.57 2.18-8.34 5.08-11.31 8.69-2.97 3.61-5.2 7.9-6.68 12.86-1.49 4.96-2.23 10.23-2.23 15.79 0 8.12 1.43 15.11 4.28 20.98 2.85 5.87 6.65 11.05 11.39 15.57 4.74 4.51 10.14 8.65 16.19 12.41 6.05 3.76 12.22 7.56 18.5 11.39 6.28 3.83 12.45 8.05 18.5 12.63 6.05 4.59 11.45 10 16.19 16.24 4.74 6.24 8.57 13.61 11.48 22.11 2.94 8.52 4.39 18.55 4.39 30.13zM523.86 351.04c0 8.72-1.26 14.66-3.77 17.82s-7.14 4.74-13.88 4.74c-6.63 0-11.17-1.54-13.62-4.62-2.46-3.08-3.68-8.91-3.68-17.48 0-8.72 1.26-14.66 3.77-17.82s7.14-4.74 13.88-4.74c6.62 0 11.16 1.54 13.62 4.62 2.45 3.09 3.68 8.91 3.68 17.48z m-3.25 271.61c0 1.21-0.23 2.22-0.69 3.05-0.46 0.83-1.2 1.54-2.23 2.14-1.03 0.6-2.46 1.05-4.28 1.35-1.83 0.3-4.17 0.45-7.02 0.45-2.74 0-5.03-0.15-6.85-0.45-1.83-0.3-3.28-0.75-4.37-1.35-1.09-0.6-1.83-1.31-2.23-2.14-0.4-0.83-0.6-1.84-0.6-3.05V419.62c0-1.05 0.2-2.03 0.6-2.93 0.4-0.9 1.14-1.65 2.23-2.26 1.08-0.6 2.54-1.05 4.37-1.35 1.83-0.3 4.11-0.45 6.85-0.45 2.85 0 5.2 0.15 7.02 0.45 1.83 0.3 3.26 0.75 4.28 1.35 1.03 0.6 1.77 1.35 2.23 2.26 0.46 0.9 0.69 1.88 0.69 2.93v203.03zM701.71 428.87c0 5.27-0.54 9.06-1.63 11.39-1.09 2.33-2.48 3.5-4.2 3.5h-22.1c4 5.41 6.79 11.39 8.4 17.93 1.6 6.54 2.4 13.35 2.4 20.42 0 11.73-1.43 22.11-4.28 31.13-2.86 9.02-6.94 16.66-12.25 22.9-5.31 6.24-11.62 11.02-18.93 14.33-7.31 3.31-15.42 4.96-24.33 4.96-6.28 0-12.25-1.09-17.9-3.27-5.65-2.18-10.02-4.92-13.11-8.23-2.06 2.71-3.74 5.79-5.05 9.25-1.31 3.46-1.97 7.44-1.97 11.96 0 5.27 1.85 9.63 5.57 13.08 3.71 3.46 8.65 5.34 14.82 5.64l40.26 2.26c7.65 0.3 14.68 1.69 21.07 4.17 6.4 2.48 11.93 6.02 16.62 10.6 4.68 4.59 8.34 10.23 10.97 16.92 2.63 6.69 3.94 14.47 3.94 23.35 0 9.32-1.49 18.2-4.46 26.62-2.97 8.42-7.51 15.83-13.62 22.22-6.11 6.39-13.91 11.43-23.39 15.12-9.48 3.68-20.68 5.53-33.58 5.53-12.45 0-23.04-1.39-31.78-4.17-8.74-2.79-15.91-6.58-21.5-11.39-5.6-4.81-9.65-10.57-12.16-17.26-2.51-6.69-3.77-13.95-3.77-21.77 0-4.96 0.46-9.78 1.37-14.44 0.91-4.66 2.31-9.1 4.2-13.31s4.22-8.23 7.02-12.07 6.02-7.63 9.68-11.39c-5.6-3.76-9.74-8.5-12.42-14.21-2.69-5.71-4.03-11.88-4.03-18.5 0-9.17 1.43-17.37 4.28-24.59 2.85-7.22 6.4-13.68 10.62-19.4-3.54-5.56-6.34-11.84-8.4-18.84-2.06-6.99-3.08-15.45-3.08-25.38 0-11.58 1.48-21.96 4.45-31.13 2.97-9.17 7.08-16.92 12.34-23.24 5.25-6.32 11.56-11.17 18.93-14.55 7.37-3.38 15.39-5.08 24.07-5.08 4.68 0 9.05 0.34 13.11 1.02 4.05 0.68 7.85 1.62 11.39 2.82h46.6c1.94 0 3.4 1.24 4.37 3.72 0.97 2.47 1.46 6.27 1.46 11.38z m-29.99 214.31c0-8.72-2.71-15.45-8.14-20.19-5.43-4.74-12.76-7.25-22.02-7.56l-39.92-1.8c-3.66 3.76-6.66 7.33-9 10.72-2.34 3.38-4.2 6.62-5.57 9.7-1.37 3.08-2.31 6.13-2.83 9.14-0.51 3.01-0.77 6.09-0.77 9.25 0 9.77 3.77 17.18 11.31 22.22 7.54 5.04 18.05 7.56 31.53 7.56 8.57 0 15.73-1.09 21.5-3.27 5.77-2.18 10.42-5.08 13.96-8.69 3.54-3.61 6.08-7.75 7.62-12.41 1.56-4.67 2.33-9.56 2.33-14.67zM657.5 482.34c0-13.83-2.89-24.62-8.65-32.37-5.77-7.74-13.96-11.62-24.59-11.62-5.48 0-10.25 1.21-14.31 3.61-4.06 2.41-7.43 5.72-10.11 9.93-2.68 4.21-4.68 9.06-6 14.55-1.31 5.49-1.97 11.24-1.97 17.26 0 13.39 2.88 23.91 8.65 31.58 5.77 7.67 13.85 11.5 24.24 11.5 5.59 0 10.45-1.16 14.56-3.5 4.11-2.33 7.51-5.56 10.19-9.7 2.68-4.13 4.68-8.91 6-14.32 1.34-5.42 1.99-11.06 1.99-16.92zM870.82 622.65c0 1.21-0.23 2.22-0.69 3.05-0.46 0.83-1.2 1.54-2.23 2.14-1.03 0.6-2.46 1.05-4.28 1.35-1.83 0.3-4.11 0.45-6.85 0.45-2.86 0-5.2-0.15-7.02-0.45-1.83-0.3-3.26-0.75-4.28-1.35-1.03-0.6-1.77-1.31-2.23-2.14-0.46-0.83-0.69-1.84-0.69-3.05V503.77c0-11.58-0.69-20.9-2.06-27.97s-3.37-13.16-6-18.27c-2.63-5.11-6.03-9.02-10.19-11.73-4.17-2.71-9-4.06-14.48-4.06-7.08 0-14.17 3.31-21.25 9.93-7.08 6.62-14.51 16.32-22.27 29.1v141.89c0 1.21-0.23 2.22-0.69 3.05-0.46 0.83-1.2 1.54-2.23 2.14-1.03 0.6-2.46 1.05-4.28 1.35-1.83 0.3-4.17 0.45-7.02 0.45-2.74 0-5.03-0.15-6.85-0.45-1.83-0.3-3.28-0.75-4.37-1.35-1.09-0.6-1.83-1.31-2.23-2.14-0.4-0.83-0.6-1.84-0.6-3.05V419.62c0-1.2 0.17-2.22 0.51-3.05 0.34-0.82 1.03-1.58 2.06-2.26s2.34-1.13 3.94-1.35c1.6-0.23 3.71-0.34 6.34-0.34 2.51 0 4.6 0.11 6.25 0.34 1.65 0.23 2.94 0.68 3.85 1.35 0.91 0.68 1.57 1.43 1.97 2.26 0.4 0.83 0.6 1.84 0.6 3.05v26.84c8.68-12.78 17.33-22.14 25.96-28.09 8.62-5.94 17.33-8.91 26.13-8.91 10.28 0 18.93 2.29 25.96 6.88 7.02 4.59 12.71 10.72 17.05 18.39s7.45 16.66 9.34 26.96c1.88 10.3 2.83 22.67 2.83 37.11v123.85z" p-id="1913"></path></svg>