<?xml version="1.0" standalone="no"?><!DOCTYPE svg PUBLIC "-//W3C//DTD SVG 1.1//EN" "http://www.w3.org/Graphics/SVG/1.1/DTD/svg11.dtd"><svg t="1656483930836" class="icon" viewBox="0 0 1024 1024" version="1.1" xmlns="http://www.w3.org/2000/svg" p-id="717" xmlns:xlink="http://www.w3.org/1999/xlink" width="200" height="200"><defs><style type="text/css"></style></defs><path d="M958.1568 409.6l-416.9216 438.8352-14.592 109.7216h-43.8784C212.1216 965.4784 0 746.0352 0 482.816 0 219.4432 212.1216 0 482.7648 0 724.1216 0 921.6 175.5648 958.1568 409.6zM482.816 592.4352l124.3136 65.8432-21.9136-138.9568 102.4-102.4-146.3296-21.9648L482.816 270.6432 416.9216 394.9568l-146.2784 21.9648 102.4 102.4-21.9648 138.9568 131.6864-65.8432z m438.8352-51.2l102.4 102.4-329.1648 343.808c-73.1136 21.9136-109.6704 36.5568-116.992 36.5568-7.3216 0-7.3216 0-7.3216-7.3216l21.9136-124.3136L921.6 541.184z m-321.8432 453.5296L665.6 972.8l-51.2-51.2-14.6432 73.1648z" p-id="718"></path></svg>